<svg version="1.2" xmlns="http://www.w3.org/2000/svg" viewBox="0 0 513 513" width="32" height="32">
	<title>hospital-svgrepo-com (2)-svg</title>
	<style>
		.s0 { fill: #ff7876 } 
		.s1 { fill: #58595b } 
	</style>
	<path id="Layer" class="s0" d="m475.2 200.7v110.6c0 12.5-10.1 22.6-22.6 22.6h-96.1c-12.5 0-22.6 10.1-22.6 22.6v96.1c0 12.5-10.1 22.6-22.6 22.6h-110.6c-12.5 0-22.6-10.1-22.6-22.6v-96.1c0-12.5-10.1-22.6-22.6-22.6h-96.1c-12.5 0-22.6-10.1-22.6-22.6v-110.6c0-12.5 10.1-22.6 22.6-22.6h96.1c12.5 0 22.6-10.1 22.6-22.6v-96.1c0-12.5 10.1-22.6 22.6-22.6h110.6c12.5 0 22.6 10.1 22.6 22.6v96.1c0 12.5 10.1 22.6 22.6 22.6h96.1c12.5 0 22.6 10.1 22.6 22.6z"/>
	<path id="Layer" fill-rule="evenodd" class="s1" d="m512 269.9c0 6.2-5.1 11.2-11.3 11.2h-14.2v30.2c0 18.7-15.2 33.9-33.9 33.9h-96.1c-6.3 0-11.3 5-11.3 11.3v96.1c0 18.7-15.2 33.9-33.9 33.9h-110.6c-18.7 0-33.9-15.2-33.9-33.9v-96.1c0-6.3-5-11.3-11.3-11.3h-96.1c-18.7 0-33.9-15.2-33.9-33.9v-30.2h-14.2c-6.2 0-11.3-5-11.3-11.2 0-6.3 5.1-11.3 11.3-11.3h14.2v-57.9c0-18.7 15.2-33.9 33.9-33.9h96.1c6.3 0 11.3-5 11.3-11.3v-96.1c0-18.7 15.2-33.9 33.9-33.9h110.6c18.7 0 33.9 15.2 33.9 33.9v96.1c0 6.3 5 11.3 11.3 11.3h96.1c18.7 0 33.9 15.2 33.9 33.9v57.9h14.2c6.2 0 11.3 5 11.3 11.3zm-463.9-11.3h70.8l68.1-57.2c6.3-5.2 16-2.2 18.2 5.8l30.3 112.5 44.6-111.5c3.4-8.3 14.6-9.7 19.7-2.4l54.8 77.5 27.3-22.2c2-1.6 4.5-2.5 7.1-2.5h74.9v-57.9c0-6.2-5.1-11.3-11.3-11.3h-96.1c-18.7 0-33.9-15.2-33.9-33.9v-96.1c0-6.2-5.1-11.3-11.3-11.3h-110.6c-6.2 0-11.3 5.1-11.3 11.3v96.1c0 18.7-15.2 33.9-33.9 33.9h-96.1c-6.2 0-11.3 5.1-11.3 11.3zm415.8 52.7v-30.1h-70.9l-33.6 27.2c-5 4.1-12.5 3.1-16.3-2.2l-49.7-70.4-49.5 123.7c-4 10.1-18.6 9.2-21.4-1.2l-34.5-128.2-57.7 48.4c-2.1 1.7-4.6 2.7-7.3 2.7h-74.9v30.1c0 6.3 5.1 11.3 11.3 11.3h96.1c18.7 0 33.9 15.2 33.9 33.9v96.1c0 6.2 5.1 11.3 11.3 11.3h110.6c6.2 0 11.3-5.1 11.3-11.3v-96.1c0-18.7 15.2-33.9 33.9-33.9h96.1c6.2 0 11.3-5 11.3-11.3z"/>
	<g id="Layer">
	</g>
	<g id="Layer">
	</g>
	<g id="Layer">
	</g>
	<g id="Layer">
	</g>
	<g id="Layer">
	</g>
	<g id="Layer">
	</g>
	<g id="Layer">
	</g>
	<g id="Layer">
	</g>
	<g id="Layer">
	</g>
	<g id="Layer">
	</g>
	<g id="Layer">
	</g>
	<g id="Layer">
	</g>
	<g id="Layer">
	</g>
	<g id="Layer">
	</g>
	<g id="Layer">
	</g>
</svg>